<?xml version="1.0" encoding="iso-8859-1"?>
<!-- Generator: Adobe Illustrator 19.0.0, SVG Export Plug-In . SVG Version: 6.00 Build 0)  -->
<svg version="1.1" id="Capa_1" xmlns="http://www.w3.org/2000/svg" xmlns:xlink="http://www.w3.org/1999/xlink" x="0px" y="0px"
	 viewBox="0 0 512 512" style="enable-background:new 0 0 512 512;" xml:space="preserve">
<g>
	<g>
		<path d="M206.11,101.201h-32.555c-4.199,0-7.604,3.404-7.604,7.604v23.936c0,4.2,3.405,7.604,7.604,7.604h32.555
			c4.199,0,7.604-3.404,7.604-7.604v-23.936C213.714,104.604,210.309,101.201,206.11,101.201z M198.505,125.136h-17.347v-8.728
			h17.347V125.136z"/>
	</g>
</g>
<g>
	<g>
		<path d="M73.773,101.201H41.218c-4.199,0-7.604,3.404-7.604,7.604v23.936c0,4.199,3.405,7.604,7.604,7.604h32.555
			c4.199,0,7.604-3.404,7.604-7.604v-23.936C81.377,104.604,77.972,101.201,73.773,101.201z M48.821,125.136v-8.728h17.347v8.728
			H48.821z"/>
	</g>
</g>
<g>
	<g>
		<path d="M139.941,101.201h-32.555c-4.199,0-7.604,3.404-7.604,7.604v23.936c0,4.2,3.405,7.604,7.604,7.604h32.555
			c4.199,0,7.604-3.404,7.604-7.604v-23.936C147.545,104.604,144.141,101.201,139.941,101.201z M132.336,125.136h-17.347v-8.728
			h17.347V125.136z"/>
	</g>
</g>
<g>
	<g>
		<path d="M404.615,101.201H372.06c-4.2,0-7.604,3.404-7.604,7.604v23.936c0,4.2,3.404,7.604,7.604,7.604h32.555
			c4.2,0,7.604-3.404,7.604-7.604v-23.936C412.219,104.604,408.815,101.201,404.615,101.201z M397.01,125.136h-17.347v-8.728h17.347
			V125.136z"/>
	</g>
</g>
<g>
	<g>
		<path d="M338.446,101.201h-32.555c-4.2,0-7.604,3.404-7.604,7.604v23.936c0,4.2,3.404,7.604,7.604,7.604h32.555
			c4.2,0,7.604-3.404,7.604-7.604v-23.936C346.05,104.604,342.647,101.201,338.446,101.201z M330.841,125.136h-17.347v-8.728h17.347
			V125.136z"/>
	</g>
</g>
<g>
	<g>
		<path d="M338.445,370.643H305.89c-4.2,0-7.604,3.404-7.604,7.604v24.949c0,4.2,3.404,7.604,7.604,7.604h32.555
			c4.2,0,7.604-3.404,7.604-7.604v-24.949C346.049,374.047,342.646,370.643,338.445,370.643z M313.495,395.591v-9.741h17.347v9.741
			H313.495z"/>
	</g>
</g>
<g>
	<g>
		<path d="M139.94,370.643h-32.555c-4.199,0-7.604,3.404-7.604,7.604v24.949c0,4.2,3.405,7.604,7.604,7.604h32.555
			c4.199,0,7.604-3.404,7.604-7.604v-24.949C147.544,374.047,144.14,370.643,139.94,370.643z M132.337,395.591H114.99v-9.741h17.347
			V395.591z"/>
	</g>
</g>
<g>
	<g>
		<path d="M206.109,370.643h-32.555c-4.199,0-7.604,3.404-7.604,7.604v24.949c0,4.2,3.405,7.604,7.604,7.604h32.555
			c4.199,0,7.604-3.404,7.604-7.604v-24.949C213.713,374.047,210.308,370.643,206.109,370.643z M198.506,395.591h-17.347v-9.741
			h17.347V395.591z"/>
	</g>
</g>
<g>
	<g>
		<path d="M504.396,69.549H57.494c-4.199,0-7.604,3.404-7.604,7.604c0,4.2,3.405,7.604,7.604,7.604h439.298v72.976h-11.176
			c-11.46,0-20.782,9.322-20.782,20.781V333.12c0,11.459,9.322,20.781,20.782,20.781h11.176v73.343H15.208v-73.343h11.177
			c11.459,0,20.781-9.322,20.781-20.781V178.514c0-11.459-9.322-20.781-20.781-20.781H15.208v-80.58c0-4.2-3.405-7.604-7.604-7.604
			S0,72.953,0,77.153v88.184v180.96v88.551c0,4.2,3.405,7.604,7.604,7.604h496.792c4.2,0,7.604-3.404,7.604-7.604v-88.551v-180.96
			V77.153C512,72.953,508.596,69.549,504.396,69.549z M15.208,172.94h11.177c3.073,0,5.573,2.5,5.573,5.573v154.606
			c0,3.073-2.5,5.573-5.573,5.573H15.208V172.94z M496.792,338.693h-11.176c-3.073,0-5.574-2.5-5.574-5.573V178.514
			c0-3.073,2.501-5.573,5.574-5.573h11.176V338.693z"/>
	</g>
</g>
<g>
	<g>
		<path d="M470.784,101.201h-32.555c-4.2,0-7.604,3.404-7.604,7.604v23.936c0,4.2,3.404,7.604,7.604,7.604h32.555
			c4.2,0,7.604-3.404,7.604-7.604v-23.936C478.387,104.604,474.984,101.201,470.784,101.201z M463.18,125.136h-17.347v-8.728h17.347
			V125.136z"/>
	</g>
</g>
<g>
	<g>
		<path d="M73.773,370.643H41.218c-4.199,0-7.604,3.404-7.604,7.604v24.949c0,4.2,3.405,7.604,7.604,7.604h32.555
			c4.199,0,7.604-3.404,7.604-7.604v-24.949C81.377,374.047,77.972,370.643,73.773,370.643z M48.821,395.591v-9.741h17.347v9.741
			H48.821z"/>
	</g>
</g>
<g>
	<g>
		<path d="M272.278,101.2h-32.555c-4.199,0-7.604,3.404-7.604,7.604v23.936c0,4.2,3.405,7.604,7.604,7.604h32.555
			c4.2,0,7.604-3.404,7.604-7.604v-23.936C279.882,104.604,276.478,101.2,272.278,101.2z M264.674,125.137h-17.347v-8.728h17.347
			V125.137z"/>
	</g>
</g>
<g>
	<g>
		<path d="M404.614,370.643h-32.555c-4.2,0-7.604,3.404-7.604,7.604v24.949c0,4.2,3.404,7.604,7.604,7.604h32.555
			c4.2,0,7.604-3.404,7.604-7.604v-24.949C412.218,374.047,408.814,370.643,404.614,370.643z M397.011,395.591h-17.347v-9.741
			h17.347V395.591z"/>
	</g>
</g>
<g>
	<g>
		<path d="M272.278,370.643h-32.555c-4.199,0-7.604,3.404-7.604,7.604v24.949c0,4.2,3.405,7.604,7.604,7.604h32.555
			c4.2,0,7.604-3.404,7.604-7.604v-24.949C279.882,374.047,276.478,370.643,272.278,370.643z M264.674,395.591h-17.347v-9.741
			h17.347V395.591z"/>
	</g>
</g>
<g>
	<g>
		<path d="M470.784,370.643h-32.555c-4.2,0-7.604,3.404-7.604,7.604v24.949c0,4.2,3.404,7.604,7.604,7.604h32.555
			c4.2,0,7.604-3.404,7.604-7.604v-24.949C478.387,374.047,474.984,370.643,470.784,370.643z M463.18,395.591h-17.347v-9.741h17.347
			V395.591z"/>
	</g>
</g>
<g>
	<g>
		<path d="M222.565,157.732h-92.281c-4.199,0-7.604,3.404-7.604,7.604c0,4.2,3.405,7.604,7.604,7.604h92.281
			c8.095,0,14.681,6.585,14.681,14.68v136.719c0,8.095-6.586,14.68-14.681,14.68H85.847c-8.095,0-14.681-6.585-14.681-14.68V187.62
			c0-8.095,6.585-14.68,14.681-14.68c4.199,0,7.604-3.404,7.604-7.604s-3.405-7.604-7.604-7.604
			c-16.48,0-29.889,13.408-29.889,29.888v136.719c0,16.48,13.408,29.888,29.889,29.888h136.718c16.48,0,29.889-13.408,29.889-29.888
			V187.62C252.453,171.14,239.045,157.732,222.565,157.732z"/>
	</g>
</g>
<g>
	<g>
		<path d="M425.337,157.732H334.07c-4.2,0-7.604,3.404-7.604,7.604c0,4.2,3.404,7.604,7.604,7.604h91.267
			c8.095,0,14.68,6.585,14.68,14.68v136.719c0,8.095-6.585,14.68-14.68,14.68H288.618c-8.095,0-14.68-6.585-14.68-14.68V187.62
			c0-8.095,6.585-14.68,14.68-14.68c4.2,0,7.604-3.404,7.604-7.604s-3.404-7.604-7.604-7.604c-16.48,0-29.888,13.408-29.888,29.888
			v136.719c0,16.48,13.408,29.888,29.888,29.888h136.719c16.48,0,29.888-13.408,29.888-29.888V187.62
			C455.225,171.14,441.816,157.732,425.337,157.732z"/>
	</g>
</g>
<g>
</g>
<g>
</g>
<g>
</g>
<g>
</g>
<g>
</g>
<g>
</g>
<g>
</g>
<g>
</g>
<g>
</g>
<g>
</g>
<g>
</g>
<g>
</g>
<g>
</g>
<g>
</g>
<g>
</g>
</svg>
