<?xml version="1.0" encoding="iso-8859-1"?>
<!-- Generator: Adobe Illustrator 16.0.0, SVG Export Plug-In . SVG Version: 6.00 Build 0)  -->
<!DOCTYPE svg PUBLIC "-//W3C//DTD SVG 1.1//EN" "http://www.w3.org/Graphics/SVG/1.1/DTD/svg11.dtd">
<svg version="1.1" id="Capa_1" xmlns="http://www.w3.org/2000/svg" xmlns:xlink="http://www.w3.org/1999/xlink" x="0px" y="0px"
	 width="612px" height="612px" viewBox="0 0 612 612" style="enable-background:new 0 0 612 612;" xml:space="preserve">
<g>
	<g id="_x31__38_">
		<g>
			<path d="M554.625,573.75H57.375c-10.557,0-19.125,8.568-19.125,19.125S46.818,612,57.375,612h497.25
				c10.557,0,19.125-8.568,19.125-19.125S565.182,573.75,554.625,573.75z M154.071,337.729
				c-33.985,17.69-48.443,48.08-32.302,67.913c16.161,19.813,56.801,21.554,90.805,3.863c33.985-17.691,45.575-58.121,25.188-74.109
				C218.312,320.19,188.056,320.057,154.071,337.729z M535.5,0h-459C34.253,0,0,34.253,0,76.5V459c0,42.247,34.253,76.5,76.5,76.5
				h459c42.247,0,76.5-34.253,76.5-76.5V76.5C612,34.253,577.747,0,535.5,0z M535.5,306c2.371,33.431-21.937,74.281-63.514,96.888
				c-53.321,28.993-115.267,21.955-138.351-15.702s1.415-91.685,54.735-120.66c37.657-20.463,79.35-22.644,108.879-9.084V117.695
				l-210.375,32.359c0,0,0.172,193.144,0,194.195c2.372,33.431-21.937,74.281-63.514,96.888
				c-53.32,28.993-115.266,21.955-138.35-15.702s1.415-91.686,54.736-120.66c37.657-20.463,79.35-22.625,108.878-9.084V133.875
				c0-10.557,9.161-16.734,19.125-19.125L516.375,76.5c11.169-2.391,19.125,8.568,19.125,19.125
				C535.5,95.625,535.5,299.574,535.5,306z M402.581,299.574c-33.928,17.786-48.29,48.233-32.072,68.008
				c16.218,19.775,56.878,21.363,90.806,3.577s45.402-58.274,24.958-74.186C466.784,281.807,436.509,281.788,402.581,299.574z"/>
		</g>
	</g>
</g>
<g>
</g>
<g>
</g>
<g>
</g>
<g>
</g>
<g>
</g>
<g>
</g>
<g>
</g>
<g>
</g>
<g>
</g>
<g>
</g>
<g>
</g>
<g>
</g>
<g>
</g>
<g>
</g>
<g>
</g>
</svg>
