<?xml version="1.0"?>
<svg xmlns="http://www.w3.org/2000/svg" viewBox="0 0 512 512" width="512" height="512"><g id="Beauty_Face" data-name="Beauty Face"><g id="Outline"><path d="M394.5,412.712a8,8,0,0,0-11.122,2.074C368.755,436.1,345.042,457.669,312.89,478.9a103.063,103.063,0,0,1-113.782,0C159.37,452.656,112,412.108,112,367.94V264a8,8,0,0,0-16,0V367.94c0,51.284,51.276,95.9,94.291,124.305a119.038,119.038,0,0,0,131.417,0c33.881-22.368,59.068-45.385,74.86-68.412A8,8,0,0,0,394.5,412.712Z"/><path d="M130.343,317.657a8,8,0,0,0,11.314,0l10.888-10.888a73.548,73.548,0,0,0,10.884,6.489l-9.086,9.085a8,8,0,0,0,11.314,11.314l14.759-14.76A62.355,62.355,0,0,0,192,320c18.772,0,28.6-9.285,29.657-10.343l-11.314-11.314.092-.09c-.251.235-6.286,5.747-18.435,5.747-20.21,0-34.229-13.544-34.343-13.657a8,8,0,0,0-11.314,0l-16,16A8,8,0,0,0,130.343,317.657Z"/><path d="M208,424c0,15.465,13.031,40,48,40s48-24.535,48-40a8,8,0,0,0-3.16-6.37c-6.977-5.3-24.248-17.63-33.931-17.63A17.155,17.155,0,0,0,256,404.346,17.155,17.155,0,0,0,245.091,400c-9.683,0-26.954,12.329-33.931,17.63A8,8,0,0,0,208,424Zm36.879-7.974c.958.456,2.6,2.127,4.876,4.974a8,8,0,0,0,12.49,0c2.265-2.83,3.9-4.5,4.858-4.965,3.126.534,11.882,5.568,20.33,11.593C285.812,434.337,279.605,448,256,448s-29.812-13.663-31.433-20.372C233.076,421.558,241.888,416.5,244.879,416.026Z"/><path d="M170.82,240.054a8.047,8.047,0,0,0-.931-.054,84.206,84.206,0,0,0-37.467,8.845,8,8,0,0,0,7.156,14.31A68.143,68.143,0,0,1,169.425,256c12.21,1.493,33.7,6.438,40.918,13.656a8,8,0,1,0,11.314-11.314C208.083,244.77,174.594,240.5,170.82,240.054Z"/><path d="M387.39,55.12a7.994,7.994,0,0,0,11.07-2.3,8,8,0,1,0-11.07,2.3Z"/><path d="M8,279.55a8,8,0,0,0-8,8V504a8,8,0,0,0,16,0V287.55A8,8,0,0,0,8,279.55Z"/><path d="M256,16A237.669,237.669,0,0,1,360.49,39.88a7.955,7.955,0,0,0,3.48.8,8.05,8.05,0,0,0,7.21-4.52,8,8,0,0,0-3.72-10.68A254.1,254.1,0,0,0,314.07,6.62,256.336,256.336,0,0,0,20.25,156.05,254.812,254.812,0,0,0,5.28,204.02,257.9,257.9,0,0,0,0,255.53a7.989,7.989,0,0,0,7.99,8.01H8a8.013,8.013,0,0,0,8-7.98C16.23,123.46,123.89,15.99,256,16Z"/><path d="M505.72,199.41a254.929,254.929,0,0,0-46.11-98.61,257.432,257.432,0,0,0-37.08-39.24,8.012,8.012,0,0,0-11.28.87,8,8,0,0,0,.87,11.28A239.91,239.91,0,0,1,496,256V504a8,8,0,0,0,16,0V256A257.222,257.222,0,0,0,505.72,199.41Z"/><path d="M280,224a8,8,0,0,0,8-8V152a8,8,0,0,0-16,0v64A8,8,0,0,0,280,224Z"/><path d="M469.708,456a8.167,8.167,0,0,0,1.359-.115,8,8,0,0,0,6.537-9.235,166.31,166.31,0,0,0-13.152-42.141,8,8,0,1,0-14.5,6.753,150.26,150.26,0,0,1,11.886,38.086A8,8,0,0,0,469.708,456Z"/><path d="M353.7,313.194a87.064,87.064,0,0,1-63.986-66.9,8,8,0,1,0-15.684,3.162,103.14,103.14,0,0,0,75.789,79.256,151.133,151.133,0,0,1,84.62,56.481,8,8,0,1,0,12.857-9.523A167.178,167.178,0,0,0,353.7,313.194Z"/><path d="M176,152a8,8,0,0,0,16,0,40.045,40.045,0,0,1,40-40,8,8,0,0,0,0-16A56.064,56.064,0,0,0,176,152Z"/><path d="M345.94,344.239A118.568,118.568,0,0,1,256,229.045V152a24,24,0,0,0-48,0v16c0,8.857-10.14,11.256-35.038,14.983-21.743,3.255-48.8,7.306-70.649,23.785C76.532,226.214,64,258.019,64,304v63.5A235.256,235.256,0,0,1,33.054,484.031a8,8,0,0,0,13.892,7.938A251.286,251.286,0,0,0,80,367.5V304c0-90.922,52.859-98.835,95.332-105.193,12.476-1.868,23.251-3.481,31.71-7.086C218.294,186.926,224,178.945,224,168V152a8,8,0,0,1,16,0v77.045A134.544,134.544,0,0,0,342.06,359.761,118.568,118.568,0,0,1,432,474.955V504a8,8,0,0,0,16,0V474.955A134.544,134.544,0,0,0,345.94,344.239Z"/><circle cx="472" cy="488" r="8"/><circle cx="264" cy="104" r="8"/></g></g></svg>
